<?xml version="1.0" encoding="UTF-8" standalone="no"?>
<svg
   viewBox="0 0 318 318"
   version="1.1"
   id="svg51"
   width="318"
   height="318"
   xmlns="http://www.w3.org/2000/svg"
   xmlns:svg="http://www.w3.org/2000/svg">
  <defs
     id="defs13">
    <linearGradient
       gradientUnits="userSpaceOnUse"
       x1="250"
       y1="-1.117"
       x2="250"
       y2="501.116"
       id="gradient-0">
      <stop
         offset="0"
         style="stop-color: rgb(255, 255, 255);"
         id="stop4" />
      <stop
         offset="0.478"
         style="stop-color: rgb(255, 255, 255);"
         id="stop6" />
      <stop
         offset="0.48030741857603576"
         style=""
         id="stop8" />
      <stop
         offset="1"
         style=""
         id="stop10" />
    </linearGradient>
  </defs>
  <g
     transform="matrix(3.677121,0,0,3.041417,-628.30386,-875.3242)"
     id="g45">
    <rect
       x="184.008"
       y="348.92801"
       width="13.133"
       height="3.224"
       style="fill:#ff7f1d"
       id="rect33" />
    <path
       d="m 197.143,348.928 10.0319,0.006 c 0.16119,-0.008 0.16096,0.0759 0.1621,0.18173 V 349.48 c 0,1.258 0.893,2.321 2.122,2.672 h -12.316 z"
       style="fill:#ffd42f"
       id="path35" />
    <path
       d="m 231.013,348.928 v 3.224 h -12.699 c 1.229,-0.351 2.122,-1.414 2.122,-2.672 v -0.21932 c 0.0123,-0.33405 0.086,-0.33268 0.39593,-0.33268 z"
       style="fill:#92e62b"
       id="path37" />
    <rect
       x="231.013"
       y="348.92801"
       width="13.133"
       height="3.224"
       style="fill:#27d8ff"
       id="rect39" />
    <path
       id="rect41"
       style="fill:#c910fa"
       d="m 244.147,348.92801 10.75,0.003 c 2.88429,-0.10291 2.44094,0.1983 2.40225,2.21612 l 4.1e-4,0.47233 c 10e-4,0.50286 -0.0201,0.55292 -0.65298,0.54648 l -12.49963,-0.0143 z" />
    <path
       id="rect43"
       style="fill:#ff000c;stroke-width:0.999941;stroke-dasharray:none"
       d="m 171.24666,348.92801 h 12.76235 v 3.224 l -10.19482,0.11551 c -2.94408,-0.007 -2.94067,0.009 -2.94577,-2.74727 l 0.004,-0.34733 c 0.008,-0.25027 0.13402,-0.24491 0.37379,-0.24491 z"
       class="UnoptimicedTransforms" />
  </g>
  <g
     aria-label="tangara"
     id="text49"
     style="font-weight:700;font-size:20px;font-family:Belinsky;white-space:pre;fill:#f2f2f2;stroke:#ffffff;stroke-width:0px;paint-order:stroke"
     transform="translate(-91.11311,35.244993)">
    <path
       d="m 131.715,134.51651 c -2.058,1.029 -4.4835,1.617 -6.909,1.617 -4.41,0 -6.468,-2.058 -6.468,-6.3945 v -18.3015 c 0,-0.3675 0.294,-0.6615 0.6615,-0.6615 h 14.0385 c 0.8085,0 1.323,-0.5145 1.323,-1.323 v -6.2475 c 0,-0.8085 -0.5145,-1.323 -1.323,-1.323 h -14.0385 c -0.3675,0 -0.6615,-0.294 -0.6615,-0.6615 V 91.078007 c 0,-0.8085 -0.5145,-1.323 -1.323,-1.323 h -6.8355 c -0.8085,0 -1.323,0.5145 -1.323,1.323 v 10.143003 c 0,0.3675 -0.294,0.6615 -0.6615,0.6615 h -8.967002 c -0.8085,0 -1.323,0.5145 -1.323,1.323 v 6.2475 c 0,0.8085 0.5145,1.323 1.323,1.323 H 108.195 c 0.3675,0 0.6615,0.294 0.6615,0.6615 v 18.963 c 0,9.7755 4.7775,14.6265 14.7,14.6265 4.116,0 8.232,-0.9555 11.613,-2.94 0.6615,-0.441 0.8085,-1.029 0.5145,-1.764 l -2.205,-5.2185 c -0.3675,-0.882 -0.9555,-1.029 -1.764,-0.588 z"
       style="font-size:73.5px;word-spacing:0px;fill:#000000"
       id="path1172" />
    <path
       d="m 160.27779,101.22101 c -2.8665,0 -6.027,0.441 -9.261,1.3965 -0.882,0.294 -1.2495,0.882 -1.1025,1.6905 l 1.1025,5.733 c 0.147,0.882 0.735,1.2495 1.5435,1.029 2.2785,-0.6615 4.6305,-0.9555 6.762,-0.9555 6.5415,0 10.29,3.087 10.29,8.673 v 0.735 c 0,0.5145 -0.294,0.735 -0.8085,0.441 -3.381,-1.6905 -6.9825,-2.499 -10.8045,-2.499 -9.702,0 -15.729,5.2185 -15.729,13.818 0,8.526 6.1005,13.818 15.8025,13.818 4.0425,0 7.791,-1.029 11.319,-3.087 0.441,-0.294 0.8085,-0.0735 0.8085,0.441 v 0.5145 c 0,0.8085 0.5145,1.323 1.323,1.323 h 6.2475 c 0.8085,0 1.323,-0.5145 1.323,-1.323 v -23.52 c 0,-11.5395 -6.909,-18.228 -18.816,-18.228 z m -8.379,29.7675 c 0,-3.7485 2.793,-5.8065 8.232,-5.8065 3.3075,0 6.321,0.735 9.0405,2.352 0.294,0.2205 0.441,0.441 0.441,0.8085 v 5.586 c 0,0.3675 -0.147,0.588 -0.441,0.735 -2.7195,1.47 -5.586,2.205 -8.82,2.205 -5.6595,0 -8.4525,-2.058 -8.4525,-5.88 z"
       style="font-size:73.5px;word-spacing:0px;fill:#000000"
       id="path1174" />
    <path
       d="m 208.83258,101.14751 c -3.8955,0 -7.5705,1.1025 -10.731,3.6015 -0.441,0.3675 -0.8085,0.2205 -0.8085,-0.294 v -1.2495 c 0,-0.8085 -0.5145,-1.323 -1.323,-1.323 h -6.174 c -0.8085,0 -1.323,0.5145 -1.323,1.323 v 39.7635 c 0,0.8085 0.5145,1.323 1.323,1.323 h 6.8355 c 0.8085,0 1.323,-0.5145 1.323,-1.323 v -29.4 c 0,-0.294 0.0735,-0.588 0.3675,-0.8085 2.1315,-1.911 4.704,-2.7195 7.644,-2.7195 5.439,0 8.0115,2.646 8.0115,9.114 v 23.814 c 0,0.8085 0.5145,1.323 1.323,1.323 h 6.8355 c 0.8085,0 1.323,-0.5145 1.323,-1.323 v -25.0635 c 0,-10.9515 -5.0715,-16.758 -14.6265,-16.758 z"
       style="font-size:73.5px;word-spacing:0px;fill:#000000"
       id="path1176" />
    <path
       d="m 262.97337,133.34051 c 2.8665,-3.234 4.557,-7.7175 4.557,-12.789 0,-4.1895 -1.1025,-7.938 -3.087,-10.9515 -0.2205,-0.3675 -0.147,-0.6615 0.147,-0.882 1.5435,-1.029 3.3075,-1.764 4.998,-2.352 0.882,-0.294 1.176,-0.8085 0.882,-1.6905 l -2.5725,-6.835503 c -0.294,-0.882 -0.882,-1.1025 -1.6905,-0.735 -2.7195,1.323 -5.5125,3.381003 -7.5705,6.247503 -0.2205,0.3675 -0.5145,0.441 -0.882,0.2205 -2.646,-1.3965 -5.733,-2.1315 -9.1875,-2.1315 -11.0985,0 -18.963,8.0115 -18.963,19.11 0,11.0985 7.8645,19.0365 18.963,19.0365 2.352,0 4.6305,-0.3675 6.6885,-1.1025 0.294,-0.0735 0.588,-0.0735 0.882,0.147 1.47,1.176 2.352,2.7195 2.352,4.704 0,4.116 -3.675,6.762 -9.7755,6.762 -4.704,0 -8.673,-1.5435 -11.5395,-4.3365 -0.6615,-0.6615 -1.2495,-0.6615 -1.8375,0 l -4.557,5.145 c -0.5145,0.588 -0.5145,1.2495 0.0735,1.911 4.4835,4.557 9.996,6.762 17.4195,6.762 12.054,0 19.6245,-6.027 19.6245,-14.9205 0,-4.263 -1.764,-7.497 -4.851,-10.3635 -0.3675,-0.294 -0.3675,-0.588 -0.0735,-0.9555 z m -23.8875,-12.789 c 0,-6.027 3.8955,-10.2165 9.4815,-10.2165 5.5125,0 9.4815,4.1895 9.4815,10.2165 0,5.9535 -3.969,10.143 -9.4815,10.143 -5.586,0 -9.4815,-4.1895 -9.4815,-10.143 z"
       style="font-size:73.5px;word-spacing:0px;fill:#000000"
       id="path1178" />
    <path
       d="m 292.49165,101.22101 c -2.8665,0 -6.027,0.441 -9.261,1.3965 -0.882,0.294 -1.2495,0.882 -1.1025,1.6905 l 1.1025,5.733 c 0.147,0.882 0.735,1.2495 1.5435,1.029 2.2785,-0.6615 4.6305,-0.9555 6.762,-0.9555 6.5415,0 10.29,3.087 10.29,8.673 v 0.735 c 0,0.5145 -0.294,0.735 -0.8085,0.441 -3.381,-1.6905 -6.9825,-2.499 -10.8045,-2.499 -9.702,0 -15.729,5.2185 -15.729,13.818 0,8.526 6.1005,13.818 15.8025,13.818 4.0425,0 7.791,-1.029 11.319,-3.087 0.441,-0.294 0.8085,-0.0735 0.8085,0.441 v 0.5145 c 0,0.8085 0.5145,1.323 1.323,1.323 h 6.2475 c 0.8085,0 1.323,-0.5145 1.323,-1.323 v -23.52 c 0,-11.5395 -6.909,-18.228 -18.816,-18.228 z m -8.379,29.7675 c 0,-3.7485 2.793,-5.8065 8.232,-5.8065 3.3075,0 6.321,0.735 9.0405,2.352 0.294,0.2205 0.441,0.441 0.441,0.8085 v 5.586 c 0,0.3675 -0.147,0.588 -0.441,0.735 -2.7195,1.47 -5.586,2.205 -8.82,2.205 -5.6595,0 -8.4525,-2.058 -8.4525,-5.88 z"
       style="font-size:73.5px;word-spacing:0px;fill:#000000"
       id="path1180" />
    <path
       d="m 348.83744,110.33501 c 1.9845,0 3.969,0.441 5.586,1.176 0.735,0.3675 1.2495,0.0735 1.5435,-0.735 l 1.9845,-6.174 c 0.2205,-0.8085 0.0735,-1.323 -0.588,-1.764 -2.058,-1.176 -4.998,-1.9845 -7.8645,-1.9845 -4.7775,0 -8.967,2.205 -11.907,6.3945 -0.3675,0.5145 -0.8085,0.3675 -0.8085,-0.2205 v -3.822 c 0,-0.8085 -0.5145,-1.323 -1.323,-1.323 h -15.6555 c -0.8085,0 -1.323,0.5145 -1.323,1.323 v 6.2475 c 0,0.8085 0.5145,1.323 1.323,1.323 h 7.4235 c 0.3675,0 0.6615,0.294 0.6615,0.6615 v 23.2995 c 0,0.3675 -0.294,0.6615 -0.6615,0.6615 h -5.88 c -0.8085,0 -1.323,0.5145 -1.323,1.323 v 6.2475 c 0,0.8085 0.5145,1.323 1.323,1.323 h 26.2395 c 0.8085,0 1.323,-0.5145 1.323,-1.323 v -6.2475 c 0,-0.8085 -0.5145,-1.323 -1.323,-1.323 h -9.555 c -0.3675,0 -0.6615,-0.294 -0.6615,-0.6615 v -16.3905 c 0,-0.294 0.0735,-0.5145 0.2205,-0.8085 2.5725,-4.557 6.762,-7.203 11.2455,-7.203 z"
       style="font-size:73.5px;word-spacing:0px;fill:#000000"
       id="path1182" />
    <path
       d="m 380.63423,101.22101 c -2.8665,0 -6.027,0.441 -9.261,1.3965 -0.882,0.294 -1.2495,0.882 -1.1025,1.6905 l 1.1025,5.733 c 0.147,0.882 0.735,1.2495 1.5435,1.029 2.2785,-0.6615 4.6305,-0.9555 6.762,-0.9555 6.5415,0 10.29,3.087 10.29,8.673 v 0.735 c 0,0.5145 -0.294,0.735 -0.8085,0.441 -3.381,-1.6905 -6.9825,-2.499 -10.8045,-2.499 -9.702,0 -15.729,5.2185 -15.729,13.818 0,8.526 6.1005,13.818 15.8025,13.818 4.0425,0 7.791,-1.029 11.319,-3.087 0.441,-0.294 0.8085,-0.0735 0.8085,0.441 v 0.5145 c 0,0.8085 0.5145,1.323 1.323,1.323 h 6.2475 c 0.8085,0 1.323,-0.5145 1.323,-1.323 v -23.52 c 0,-11.5395 -6.909,-18.228 -18.816,-18.228 z m -8.379,29.7675 c 0,-3.7485 2.793,-5.8065 8.232,-5.8065 3.3075,0 6.321,0.735 9.0405,2.352 0.294,0.2205 0.441,0.441 0.441,0.8085 v 5.586 c 0,0.3675 -0.147,0.588 -0.441,0.735 -2.7195,1.47 -5.586,2.205 -8.82,2.205 -5.6595,0 -8.4525,-2.058 -8.4525,-5.88 z"
       style="font-size:73.5px;word-spacing:0px;fill:#000000"
       id="path1184" />
  </g>
</svg>
