<svg xmlns="http://www.w3.org/2000/svg" xmlns:xlink="http://www.w3.org/1999/xlink" xml:space="preserve" version="1.1" style="shape-rendering:geometricPrecision;text-rendering:geometricPrecision;image-rendering:optimizeQuality;" viewBox="0 0 846.66 1058.325" x="0px" y="0px" fill-rule="evenodd" clip-rule="evenodd"><defs><style type="text/css">

    .fil0 {fill:black}

  </style></defs><g><path class="fil0" d="M480.58 152.68c33.91,7.14 65.54,20.5 93.63,38.82l73.01 -73.01 80.95 80.95 -73.01 73.01c18.32,28.1 31.68,59.72 38.82,93.64l103.22 0 0 114.48 -103.21 0c-7.14,33.92 -20.5,65.55 -38.82,93.64l73 73.01 -80.95 80.94 -73.01 -73c-28.09,18.32 -59.72,31.68 -93.64,38.82l0 103.21 -114.48 0 0 -103.2c-33.92,-7.15 -65.55,-20.5 -93.64,-38.83l-73.01 73 -80.94 -80.95 73 -73.01c-18.32,-28.09 -31.68,-59.71 -38.82,-93.64l-103.21 0 0 -114.48 103.2 0c7.15,-33.92 20.5,-65.55 38.83,-93.64l-73 -73 80.95 -80.95 73.01 73.01c28.09,-18.33 59.71,-31.69 93.64,-38.83l0 -103.21 114.48 0 0 103.22zm-53.49 93.11c43.07,0 82.56,15.35 113.3,40.86l-32.6 35.98c-22.1,-17.74 -50.16,-28.35 -80.7,-28.35 -71.28,0 -129.05,57.77 -129.05,129.05 0,71.27 57.77,129.05 129.05,129.05 53.75,0 99.82,-32.87 119.22,-79.59 4.88,-11.75 8.08,-24.38 9.29,-37.58l-33.19 44.85c-18.88,25.56 -57.78,-3.15 -38.88,-28.74l76.54 -103.44c11.73,-15.87 30.48,-14.29 39.86,1.61l63.96 107.97c16.18,27.42 -25.57,52.04 -41.74,24.63l-19.41 -32.87c-1.21,8.24 -2.99,16.31 -5.28,24.15 -21.61,73.68 -89.71,127.49 -170.37,127.49 -98.05,0 -177.54,-79.49 -177.54,-177.53 0,-98.05 79.49,-177.54 177.54,-177.54z"/></g><text x="0" y="861.66" fill="#000000" font-size="5px" font-weight="bold" font-family="'Helvetica Neue', Helvetica, Arial-Unicode, Arial, Sans-serif">Created by zahrotul fuadah</text><text x="0" y="866.66" fill="#000000" font-size="5px" font-weight="bold" font-family="'Helvetica Neue', Helvetica, Arial-Unicode, Arial, Sans-serif">from the Noun Project</text></svg>
